<svg width="27" height="26" viewBox="0 0 27 26" fill="none" xmlns="http://www.w3.org/2000/svg">
<path d="M16.5756 5.82352C19.6093 3.66244 22.0867 2.70223 22.9496 3.56508C23.8124 4.42794 22.8522 6.90544 20.6911 9.93907M20.6911 9.93907C19.4644 11.6611 17.8507 13.5624 15.9639 15.4492C14.077 17.336 12.1758 18.9498 10.4537 20.1764M20.6911 9.93907C21.0925 10.8788 21.3147 11.9135 21.3147 13C21.3147 17.3079 17.8225 20.8 13.5147 20.8C12.4282 20.8 11.3935 20.5778 10.4537 20.1764M6.33816 16.061C4.17709 19.0946 3.21688 21.5721 4.07973 22.435C4.94259 23.2977 7.42009 22.3376 10.4537 20.1764M19.0301 7.48457C17.6185 6.07305 15.6685 5.2 13.5147 5.2C9.20683 5.2 5.71465 8.69218 5.71465 13C5.71465 15.1539 6.5877 17.1039 7.99922 18.5155" stroke="black" stroke-opacity="0.5" stroke-width="1.5" stroke-linecap="round" stroke-linejoin="round"/>
</svg>
